<svg width="161" height="151" fill="none" xmlns="http://www.w3.org/2000/svg"><path d="M30.094 78.516l2.156-2.938A55.46 55.46 0 0 1 37 69.922C24.125 68.89 14 58.14 14 45.016c0-13.813 11.188-25 25-25 13.813 0 25 11.187 25 25 0 3.437-.688 6.718-1.938 9.687 4.407-1.25 8.97-2 13.626-2.156.53-2.531.812-5.063.812-7.563 0-20.687-16.813-37.5-37.5-37.5-20.688 0-37.5 16.844-37.5 37.532 0 16.843 11.313 31.656 27.563 36.125a5.797 5.797 0 0 1 1.03-2.625z" fill="#F8C80F"/><path d="M125.094 150.016l29.125-17.5-29.125-17.5v8.593H95.25l14.656-12.812c1.906-1.688 3.032-4.125 3.032-6.656a8.82 8.82 0 0 0-4.157-7.5l-15.125-9.438 18.469-20.781h.469c12.531-.344 24.281-6.719 31.437-17.031l10.094-14.594a6.966 6.966 0 0 0 1.281-4.063 7.122 7.122 0 0 0-7.125-7.125h-1.375c-2.281 0-4.437 1.094-5.75 2.938l-7.812 10.719c-5.125 7.03-12.719 11.75-21.407 13.28l-3.218.563 2.25-2.406c2.875-3.062 4.469-7.031 4.469-11.219 0-9.03-7.375-16.406-16.407-16.406-9.031 0-16.406 7.375-16.406 16.406 0 4.438 1.75 8.594 4.938 11.72l1.906 1.874H77.53a56.26 56.26 0 0 0-11.531 1.219l-1.688.344.376-1.657c.468-2.03.718-4.03.718-5.968 0-14.563-11.844-26.407-26.406-26.407-14.563 0-26.406 11.844-26.406 26.407 0 12 8.156 22.5 19.812 25.53l1.657.438L33 72.297c-.719.906-1.344 1.687-1.906 2.469l-2.157 2.937a7.092 7.092 0 0 0-1.343 4.156 7.055 7.055 0 0 0 7.062 7.063h1.563c2.187 0 4.218-1 5.562-2.719l2-2.562c7.75-9.97 18.907-16.032 31.438-17.063l2.969-.25-45.626 45.625a8.44 8.44 0 0 0-2.5 6c0 1.375.375 2.75 1.094 4.031l.907 1.625h-16.97v2.813h112.813v-6.406l20.875 12.5-20.875 12.5v-6.407H22.594v2.813h102.5v8.594zm-39.688-112.5c0-7.5 6.094-13.594 13.594-13.594 7.5 0 13.594 6.094 13.594 13.594 0 7.5-6.094 13.593-13.594 13.593-7.5 0-13.594-6.093-13.594-13.593zM24.312 63.39l-.937-.75 3.469-3.47-2-2-3.469 3.47-.75-.938a23.395 23.395 0 0 1-5.031-12.062l-.125-1.22h4.969v-2.81h-5l.124-1.218a23.496 23.496 0 0 1 5.032-12.094l.75-.969 3.5 3.5 2-2-3.5-3.5.968-.75c3.5-2.781 7.688-4.531 12.094-5.031l1.219-.125v4.969h2.813v-4.938l1.218.125c4.407.5 8.594 2.219 12.094 5.031l.969.75-3.5 3.5 2 2 3.5-3.5.75.97C60.25 33.83 62 38.017 62.5 42.423l.125 1.219h-4.969v2.812h4.969l-.125 1.219c-.188 1.812-.625 3.625-1.281 5.437l-.188.5-.531.157a58.079 58.079 0 0 0-23.625 14.312l-.375.375-.531-.062a23.931 23.931 0 0 1-11.657-5zm56.75 58.625l.844 1.593H45.062L74 96.579l17.406 8.687-8.25 6.625a8.15 8.15 0 0 0-3.062 6.375c0 1.25.312 2.531.969 3.75zm7.907 1.593h-.719c-2.938 0-5.344-2.406-5.344-5.343a5.35 5.35 0 0 1 2-4.188l11.688-9.344-23.063-11.53-30.937 28.874c-1.063 1-2.438 1.531-4 1.531a5.655 5.655 0 0 1-4-9.656l45.843-45.844v-4.5H79c-14.75 0-28.375 6.657-37.406 18.313l-2 2.562c-.813 1.032-2.032 1.657-3.344 1.657h-1.563a4.254 4.254 0 0 1-4.25-4.25c0-.907.282-1.782.813-2.5l2.156-2.938c10.25-14.094 26.75-22.469 44.157-22.469h28.625c11.593 0 22.625-5.593 29.437-15l7.813-10.718a4.264 4.264 0 0 1 3.468-1.782h1.375a4.322 4.322 0 0 1 4.313 4.313c0 .875-.281 1.719-.782 2.469l-10.093 14.593c-6.875 9.907-18.157 15.844-30.219 15.844h-.625L89.344 87.828l17.906 11.188c1.781 1.125 2.844 3.031 2.844 5.125 0 1.75-.75 3.406-2.063 4.531l-15.562 13.594a5.218 5.218 0 0 1-3.5 1.343zm-73.563 15.001h-2.812v2.813h2.812v-2.813zm-10 0H2.594v2.813h2.812v-2.813z" fill="#231F20"/><path d="M40.406 33.61h-2.812v12l4.625 4.624 2-2-3.813-3.812V33.609z" fill="#231F20"/></svg>