<svg width="130" height="151" fill="none" xmlns="http://www.w3.org/2000/svg"><path d="M93.807 25.417a27.446 27.446 0 0 0-2.375-5.696l2.71-4.386-10.63-10.629-4.385 2.71a31.502 31.502 0 0 0-5.726-2.375L72.244.016H57.198L56.01 5.04a28.412 28.412 0 0 0-5.725 2.376l-4.386-2.711-10.63 10.63 2.71 4.385a32.132 32.132 0 0 0-2.375 5.696l-4.995 1.188v15.167l5.026 1.188c.396 1.31.913 2.589 1.492 3.868A17.08 17.08 0 0 1 49.95 61.203l.366-.213a31.502 31.502 0 0 0 5.726 2.376l1.188 5.025h15.045l1.188-5.025a28.414 28.414 0 0 0 5.726-2.376l.365.213c.884-7.035 6.061-12.7 12.823-14.375.578-1.28 1.096-2.559 1.492-3.868l5.026-1.188V26.605l-5.087-1.188zM64.721 51.183c-9.411 0-17.056-7.645-17.056-17.056 0-9.41 7.645-17.056 17.056-17.056 9.411 0 17.056 7.645 17.056 17.056 0 9.411-7.645 17.056-17.056 17.056z" fill="#F8C80F"/><path d="M64.72 52.554c10.173 0 18.427-8.254 18.427-18.427 0-10.172-8.254-18.426-18.426-18.426-10.173 0-18.427 8.254-18.427 18.426 0 10.173 8.254 18.427 18.427 18.427zm0-34.112c8.65 0 15.686 7.036 15.686 15.685 0 8.65-7.035 15.686-15.685 15.686s-15.685-7.036-15.685-15.686S56.07 18.442 64.72 18.442z" fill="#231F20"/><path d="M106.66 80.696l-2.102-.7 1.858-1.219c5.269-3.442 8.406-9.198 8.406-15.442 0-10.172-8.253-18.426-18.426-18.426-10.173 0-18.427 8.254-18.427 18.426 0 6.244 3.138 12 8.407 15.442l1.858 1.218-2.102.7c-1.645.549-3.228 1.189-4.751 1.98l-.853.427-.518-.792a18.466 18.466 0 0 0-15.29-8.132 18.465 18.465 0 0 0-15.288 8.132l-.518.792-.853-.427a29.878 29.878 0 0 0-4.751-1.949l-2.102-.7 1.858-1.219c5.269-3.441 8.406-9.198 8.406-15.441 0-10.173-8.254-18.427-18.426-18.427-10.173 0-18.427 8.254-18.427 18.427 0 6.243 3.137 12 8.406 15.441l1.858 1.219-2.101.7A32.912 32.912 0 0 0 0 112.097v8.68h38.802l-1.188 1.675c-3.898 5.574-5.97 12.122-5.97 18.883v8.681h66.092v-8.681c0-6.761-2.071-13.309-5.97-18.883l-1.187-1.675h38.802v-8.68c.061-14.315-9.076-26.924-22.721-31.401zm-25.95-17.33c0-8.65 7.036-15.685 15.686-15.685s15.685 7.035 15.685 15.685-7.035 15.685-15.685 15.685S80.71 72.016 80.71 63.366zm21.625 21.929c0 4.63-2.65 8.375-5.94 8.375-3.288 0-5.938-3.746-5.938-8.375 0-.7.091-1.432.274-2.285l.152-.7.731-.122a29.291 29.291 0 0 1 4.812-.396c1.493 0 3.046.122 4.813.427l.731.121.152.731c.122.792.213 1.554.213 2.224zm-37.614-8.376c8.65 0 15.685 7.036 15.685 15.685 0 8.65-7.035 15.686-15.685 15.686s-15.686-7.036-15.686-15.686S56.072 76.92 64.721 76.92zm-19.188 7.584l.883.426c.153.061.274.122.427.213l.822.427-.305.883a18.13 18.13 0 0 0-1.096 6.183c0 .822.06 1.675.213 2.71l.061.305-4.081 9.015-7.584-9.533 10.66-10.63zM17.36 63.366c0-8.65 7.036-15.685 15.686-15.685S48.73 54.716 48.73 63.366 41.695 79.05 33.046 79.05c-8.65 0-15.686-7.035-15.686-15.685zm7.736 19.523a29.947 29.947 0 0 1 7.95-1.097c2.68 0 5.36.366 7.98 1.066l1.766.487-9.746 9.747-9.747-9.746 1.797-.457zm-8.619 3.868c1.005-.67 2.132-1.28 3.411-1.92l.67-.334 10.63 10.63-7.584 9.471-7.888-17.39.761-.457zm-1.553 31.279v-14.619h-2.741v14.619H2.74v-5.939c0-8.345 3.533-16.386 9.655-22.142l1.096-1.005 9.473 20.862 10.08-12.578 10.082 12.578 4.538-9.99 1.035 1.828a18.85 18.85 0 0 0 6 6.396l1.858 1.218-2.101.701c-4.782 1.553-9.198 4.264-12.792 7.797l-.305.304H14.924v-.03zm31.675 29.238v-14.619h-2.741v14.619h-9.442v-5.939c0-10.142 5.056-19.553 13.523-25.218l1.066-.7 13.645 31.857H46.599zm4.843-33.167l.944-.426a29.847 29.847 0 0 1 12.335-2.65c4.264 0 8.406.883 12.335 2.65l.944.426-13.28 31.066-13.278-31.066zm43.583 27.228v5.939h-9.441v-14.619h-2.741v14.619H66.792l13.645-31.857 1.066.7c8.466 5.665 13.522 15.076 13.522 25.218zm31.676-23.299h-9.442v-14.619h-2.741v14.619H88.112l-.305-.305c-3.594-3.533-8.04-6.213-12.792-7.797l-2.101-.7 1.858-1.218c5.269-3.442 8.406-9.198 8.406-15.442a17.96 17.96 0 0 0-1.097-6.152l-.304-.884.822-.426a25.606 25.606 0 0 1 3.777-1.614l1.492-.518-.091 1.584c0 .122-.03.274-.03.396s-.031.243-.031.335c0 6.122 3.898 11.117 8.68 11.117s8.68-4.995 8.68-11.117c0-.092 0-.183-.03-.305 0-.122-.031-.243-.031-.365l-.091-1.615 1.523.518c12.122 4.264 20.284 15.746 20.284 28.569v5.939h-.03zM64.72 42.807c4.782 0 8.68-3.898 8.68-8.68s-3.898-8.68-8.68-8.68c-4.781 0-8.68 3.899-8.68 8.68 0 4.782 3.899 8.68 8.68 8.68zm0-14.619c3.29 0 5.94 2.65 5.94 5.94a5.927 5.927 0 0 1-5.94 5.938 5.927 5.927 0 0 1-5.938-5.939c0-3.29 2.65-5.939 5.939-5.939z" fill="#231F20"/></svg>