<svg width="150" height="151" fill="none" xmlns="http://www.w3.org/2000/svg"><path d="M140.824 53.85V40.573l-3.793-1.315c-.336-.948-.703-1.896-1.132-2.783l1.744-3.61-9.391-9.39-3.609 1.744a22.104 22.104 0 0 0-2.783-1.132l-1.316-3.793H107.27l-1.316 3.793c-.948.336-1.896.703-2.783 1.131l-3.61-1.743-9.39 9.39 1.744 3.61a22.082 22.082 0 0 0-1.132 2.783l-3.793 1.315V53.85l3.793 1.315c.337.949.704 1.897 1.132 2.784l-1.744 3.61 9.39 9.39 3.61-1.744c.887.428 1.835.826 2.783 1.162l1.316 3.793h13.274l1.316-3.793c.948-.336 1.896-.703 2.783-1.162l3.609 1.744 9.391-9.39-1.744-3.61c.429-.887.826-1.835 1.132-2.784l3.793-1.315zM113.907 57a9.777 9.777 0 0 1-9.788-9.788 9.777 9.777 0 0 1 9.788-9.788 9.777 9.777 0 0 1 9.788 9.788A9.777 9.777 0 0 1 113.907 57zm-23.399 68.515h2.753v9.788h-2.753v-9.788zm34.258-14.682h2.752v19.576h-2.752v-19.576z" fill="#F8C80F"/><path d="M113.907 57c6.148 0 11.164-5.017 11.164-11.165 0-6.148-5.016-11.164-11.164-11.164s-11.164 5.016-11.164 11.164S107.759 57 113.907 57zm0-19.576a8.407 8.407 0 0 1 8.412 8.411 8.407 8.407 0 0 1-8.412 8.412 8.407 8.407 0 0 1-8.411-8.412 8.406 8.406 0 0 1 8.411-8.411z" fill="#231F20"/><path d="M78.395 43.419c1.132 20.708 13.673 38.632 32.729 46.799l2.814 1.192 2.814-1.192c19.943-8.534 32.82-28.08 32.82-49.797V12.648h-1.835c-11.991 0-23.706-4.22-32.912-11.929l-.918-.703-.887.734c-9.207 7.677-20.891 11.898-32.912 11.898h-1.835v12.235l-.857.184a8.151 8.151 0 0 0-2.324.887L50.56 41.064c-2.998 1.835-6.485 2.967-10.094 3.303l-2.936.245 2.08-2.08a15.967 15.967 0 0 0 4.71-11.348c0-8.84-7.219-16.058-16.058-16.058-8.84 0-16.059 7.218-16.059 16.058 0 4.955 2.264 9.543 6.179 12.633l1.621 1.254-1.927.611C7.25 49.108 0 58.988 0 70.336v19.576c0 6.148 5.016 11.164 11.164 11.164h1.07v40.222c0 4.802 3.916 8.718 8.718 8.718s8.718-3.916 8.718-8.718v-42.7h16.823v23.094c0 1.499.397 2.967 1.223 4.343l.948 1.621H41.63v19.576h-4.894v2.753h105.526v-2.753h-4.894v-48.94h-27.222v48.94h-7.035v-34.258H75.887v34.258h-7.035v-19.576h-7.035l.948-1.621c.795-1.376 1.224-2.844 1.224-4.343V92.328c0-6.148-5.017-11.164-11.165-11.164H46.86V65.93c0-2.906 1.468-5.597 3.946-7.127l27.559-17.22.03 1.835zm34.441 57.626h21.717v46.187h-21.717v-46.187zm-34.257 14.682h21.717v31.505H78.579v-31.505zm2.447-100.326l1.04-.03c11.225-.398 22.298-4.405 31.199-11.287l.642-.52.642.52c8.901 6.882 19.974 10.889 31.199 11.286l1.04.031v24.99a51.36 51.36 0 0 1-31.168 47.257l-1.713.734-1.713-.734a51.372 51.372 0 0 1-31.168-47.196v-.581l1.56-.979c2.08-1.315 3.334-3.548 3.334-6.026v-.887c0-2.814-1.683-5.352-4.252-6.484l-.642-.276v-9.818zM14.957 31.154c0-7.31 5.965-13.306 13.306-13.306 7.34 0 13.305 5.965 13.305 13.306 0 7.34-5.964 13.305-13.305 13.305-7.341 0-13.306-5.965-13.306-13.306zm21.9 16.058l-8.594 11.072-8.106-10.4 1.774-.305c1.407-.245 2.661-.367 3.885-.367h11.042zm29.18 83.197v16.823H44.322v-16.823h21.717zm-16.76-73.93c-3.274 2.05-5.262 5.598-5.262 9.452v17.986h8.718a8.407 8.407 0 0 1 8.411 8.411v29.364a5.952 5.952 0 0 1-5.965 5.964 5.952 5.952 0 0 1-5.964-5.964V99.669a3.825 3.825 0 0 0-3.824-3.823H29.64v-9.788h-2.753v55.21a5.952 5.952 0 0 1-5.964 5.964 5.952 5.952 0 0 1-5.965-5.964v-79.68h-2.753v36.705h-1.07a8.407 8.407 0 0 1-8.412-8.412V70.305c0-9.207 5.475-17.496 13.918-21.197l.764-.336L28.263 62.75l12.204-15.66.459-.031c4.037-.398 7.769-1.621 11.103-3.67l24.531-15.11a4.254 4.254 0 0 1 2.294-.643 4.36 4.36 0 0 1 4.343 4.343v.887a4.296 4.296 0 0 1-2.049 3.67L49.276 56.48z" fill="#231F20"/><path d="M127.518 109.457h-2.752v2.753h2.752v-2.753zm0 9.023h-2.752v2.753h2.752v-2.753zm0 9.176h-2.752v2.753h2.752v-2.753zm-34.258-2.141h-2.752v2.753h2.753v-2.753zm0 7.035h-2.752v2.753h2.753v-2.753zm-34.257 4.894H56.25v2.753h2.753v-2.753z" fill="#231F20"/></svg>