<svg width="152" height="151" fill="none" xmlns="http://www.w3.org/2000/svg"><path d="M89.077 36.068l-3.438 22.3 7.434 7.434 7.433-7.434-3.469-22.517-7.96.217zm-3.437 79.289h14.866v9.912H85.639v-9.912zm0-19.822h14.866v9.911H85.639v-9.91zm-54.513 19.822h14.867v9.912H31.127v-9.912zm0-19.822h14.867v9.911H31.127v-9.91z" fill="#F8C80F"/><path d="M31.158 59.452h-8.362l.279-2.292c2.477-19.699 19.296-34.565 39.18-34.565 4.274 0 8.517.712 12.668 2.106l.495.155.186.464a18.817 18.817 0 0 0 5.668 7.898l1.796 1.487-2.292.434C68.45 37.46 59.467 48.27 59.467 60.846v26.172h54.822V54l34.689-34.69a8.363 8.363 0 0 0 2.478-5.946c0-4.646-3.779-8.394-8.394-8.394a8.39 8.39 0 0 0-5.947 2.447l-19.357 19.358c-2.509 2.509-5.637 4.429-9.044 5.606l-3.624 1.239 2.447-2.943c2.756-3.345 4.305-7.588 4.305-11.924 0-10.345-8.394-18.738-18.739-18.738-7.247 0-13.906 4.274-17.003 10.902l-.372.805-.867-.217c-4.213-1.053-8.456-1.58-12.606-1.58-26.915 0-49.247 20.195-51.91 46.986l-.248 2.57H1.425l14.898 23.85 14.835-23.88zm88.551-30.725L139.067 9.37a5.605 5.605 0 1 1 7.929 7.929l-35.495 35.526V84.23H74.644V54.496h-2.788V84.23h-9.601V60.846c0-12.885 10.5-23.385 23.384-23.385h9.85l9.446-1.331c5.544-.775 10.809-3.407 14.774-7.403zM93.073 2.772c8.796 0 15.95 7.155 15.95 15.951s-7.154 15.95-15.95 15.95c-8.797 0-15.951-7.154-15.951-15.95s7.154-15.95 15.95-15.95zM12.575 62.24l.495-5.08c2.54-25.366 23.663-44.477 49.154-44.477 3.84 0 7.774.465 11.615 1.394l.99.248-.185 1.022a18.5 18.5 0 0 0-.31 3.376c0 .403.031.774.062 1.208l.124 1.672-1.456-.402c-3.53-.93-7.185-1.425-10.81-1.425-21.277 0-39.303 15.92-41.936 37.012l-.681 5.42h6.504l-9.88 15.796-9.88-15.796h6.194v.032zm108.837 87.776l28.867-17.314-28.867-17.314v8.487h-7.123V94.141H71.856v29.734H59.777V94.141H17.345v29.734h-4.956v2.787H124.2v-6.38l20.69 12.42-20.69 12.42v-6.38H19.823v2.787h101.589v8.487zM56.99 123.875H20.132V96.929H56.99v26.946zm54.511 0H74.644V96.929h36.857v26.946zm-98.802 14.867H9.91v2.787h2.79v-2.787zm-9.911 0H0v2.787h2.788v-2.787z" fill="#231F20"/></svg>