<svg width="30" height="30" fill="none" xmlns="http://www.w3.org/2000/svg"><path d="M25.605 0H4.395A4.4 4.4 0 0 0 0 4.395v21.21A4.4 4.4 0 0 0 4.395 30h21.21A4.4 4.4 0 0 0 30 25.605V4.395A4.4 4.4 0 0 0 25.605 0zM15.06 22.852c-4.362 0-7.91-3.549-7.91-7.91 0-4.362 3.548-7.91 7.91-7.91 4.361 0 7.91 3.548 7.91 7.91 0 4.361-3.549 7.91-7.91 7.91zm8.789-14.063a2.64 2.64 0 0 1-2.637-2.637 2.64 2.64 0 0 1 2.637-2.636 2.64 2.64 0 0 1 2.636 2.636 2.64 2.64 0 0 1-2.636 2.637z" fill="#C4C4C4"/><path d="M23.848 5.273a.88.88 0 1 0 0 1.76.88.88 0 0 0 0-1.76zM15.059 8.79a6.16 6.16 0 0 0-6.153 6.151 6.16 6.16 0 0 0 6.153 6.153 6.16 6.16 0 0 0 6.152-6.153 6.16 6.16 0 0 0-6.152-6.152z" fill="#C4C4C4"/></svg>