<svg width="39" height="30" viewBox="0 0 39 30" fill="none" xmlns="http://www.w3.org/2000/svg">
<path d="M25.5 14.2004L16 8.50039C15.8 8.40039 15.7 8.40039 15.5 8.40039C15.3 8.40039 15.2 8.40039 15 8.50039C14.7 8.70039 14.5 9.00039 14.5 9.30039V20.7004C14.5 21.1004 14.7 21.4004 15 21.5004C15.3 21.7004 15.7 21.7004 16 21.5004L25.5 15.8004C25.8 15.6004 26 15.3004 26 15.0004C26 14.7004 25.8 14.4004 25.5 14.2004ZM16.5 19.0004V11.0004L23.2 15.0004L16.5 19.0004Z" fill="#231F20"/>
<path d="M38 6.8002C37.5 3.8002 35.2 1.5002 32.3 1.1002C28.5 0.500195 24 0.200195 19.5 0.200195C15 0.200195 10.5 0.500195 6.7 1.0002C3.8 1.5002 1.5 3.8002 1 6.8002C0 12.5002 0 17.6002 1 23.2002C1.5 26.2002 3.8 28.5002 6.7 28.9002C10.3 29.4002 14.9 29.7002 19.5 29.7002C24.1 29.7002 28.6 29.4002 32.3 28.9002C35.2 28.5002 37.5 26.2002 38 23.2002C38.9 17.5002 38.9 12.5002 38 6.8002ZM36.1 22.9002C35.7 25.0002 34 26.7002 32 27.0002C28.3 27.5002 23.9 27.8002 19.5 27.8002C15.1 27.8002 10.7 27.5002 7 27.0002C4.9 26.7002 3.3 25.0002 2.9 22.9002C2 17.4002 2 12.6002 2.9 7.1002C3.2 5.0002 4.9 3.3002 7 3.0002C10.6 2.5002 15 2.2002 19.5 2.2002C24 2.2002 28.4 2.5002 32 3.0002C34.1 3.3002 35.7 5.0002 36.1 7.1002C37 12.6002 37 17.4002 36.1 22.9002Z" fill="#231F20"/>
</svg>
