<svg width="40" height="40" viewBox="0 0 40 40" fill="none" xmlns="http://www.w3.org/2000/svg">
<path d="M37.2897 17.2788C36.6685 17.2779 36.0657 17.4908 35.5827 17.8817C35.0997 18.2726 34.7657 18.8178 34.6368 19.4258H31.006C30.8742 16.887 29.8646 14.473 28.1499 12.5968L30.7243 10.026C31.2786 10.393 31.949 10.5421 32.6066 10.4446C33.2642 10.347 33.8625 10.0097 34.2865 9.49746C34.7105 8.98523 34.9302 8.33427 34.9034 7.66977C34.8765 7.00527 34.6051 6.37416 34.1412 5.8978C33.6773 5.42144 33.0537 5.13347 32.3904 5.08928C31.7271 5.04509 31.0709 5.24779 30.5479 5.6584C30.025 6.06901 29.6723 6.65854 29.5576 7.31361C29.4429 7.96868 29.5744 8.64304 29.9267 9.20699L27.3351 11.7996C25.4468 10.1074 23.0308 9.1218 20.4981 9.01036V5.37547C21.1556 5.25397 21.7449 4.89353 22.1528 4.3635C22.5606 3.83348 22.7582 3.1713 22.7074 2.50435C22.6566 1.83741 22.361 1.21282 21.8776 0.750732C21.3942 0.288645 20.757 0.0217057 20.0887 0.00126672C19.4204 -0.0191722 18.7682 0.208333 18.2574 0.640016C17.7467 1.0717 17.4136 1.67707 17.3222 2.33966C17.2307 3.00225 17.3874 3.67526 17.7622 4.22922C18.1369 4.78318 18.7031 5.17896 19.352 5.34042V9.01888C16.8431 9.16671 14.461 10.1717 12.6039 11.8658L10.0316 9.29249C10.4059 8.73846 10.5621 8.06555 10.4703 7.40319C10.3786 6.74083 10.0452 6.13583 9.53433 5.70456C9.02349 5.2733 8.37128 5.04623 7.70317 5.06705C7.03506 5.08787 6.39824 5.35511 5.91523 5.81734C5.43221 6.27958 5.13712 6.90417 5.08671 7.57096C5.03631 8.23775 5.23415 8.89963 5.64219 9.42928C6.05022 9.95893 6.63962 10.3189 7.29701 10.44C7.95439 10.5611 8.63331 10.4348 9.20317 10.0852L11.7973 12.6715C10.1033 14.558 9.1161 16.9742 9.00424 19.5077H5.39211C5.27264 18.8853 4.94173 18.3234 4.45548 17.9172C3.96922 17.511 3.35752 17.2854 2.72405 17.2788C2.36703 17.2768 2.01314 17.3455 1.68274 17.4808C1.35233 17.6161 1.05191 17.8154 0.798767 18.0673C0.545619 18.3191 0.34473 18.6186 0.20765 18.9484C0.0705689 19.2781 0 19.6318 0 19.9889C0 20.3461 0.0705689 20.6997 0.20765 21.0295C0.34473 21.3593 0.545619 21.6587 0.798767 21.9106C1.05191 22.1625 1.35233 22.3618 1.68274 22.4971C2.01314 22.6324 2.36703 22.7011 2.72405 22.6991C3.32898 22.708 3.91887 22.5103 4.39626 22.1385C4.87365 21.7667 5.20998 21.2431 5.34971 20.6542H9.01292C9.15326 23.1622 10.1542 25.545 11.8468 27.4004L9.28954 29.9631C8.73017 29.5869 8.05142 29.4309 7.38398 29.5253C6.71654 29.6196 6.10758 29.9576 5.67435 30.4743C5.24111 30.9909 5.01423 31.6496 5.03737 32.3235C5.06052 32.9974 5.33206 33.639 5.79971 34.1246C6.26737 34.6103 6.89808 34.9057 7.57042 34.954C8.24277 35.0023 8.90921 34.8001 9.44145 34.3863C9.97369 33.9725 10.3341 33.3764 10.4533 32.7127C10.5725 32.049 10.442 31.3646 10.0871 30.7914L12.6596 28.2178C14.5296 29.9015 16.9213 30.8909 19.4338 31.0204V34.6388C18.7801 34.7803 18.2017 35.1586 17.81 35.701C17.4183 36.2435 17.2409 36.9116 17.312 37.577C17.3832 38.2424 17.6977 38.8579 18.1952 39.3052C18.6927 39.7525 19.338 40 20.0069 40C20.6758 40 21.3211 39.7525 21.8186 39.3052C22.3161 38.8579 22.6306 38.2424 22.7018 37.577C22.7729 36.9116 22.5955 36.2435 22.2038 35.701C21.8121 35.1586 21.2337 34.7803 20.58 34.6388V31.0204C23.1144 30.8899 25.5253 29.8844 27.402 28.1753L29.9617 30.7361C29.5942 31.2955 29.4465 31.9712 29.547 32.633C29.6476 33.2948 29.9892 33.8961 30.5062 34.3211C31.0232 34.7461 31.6791 34.9648 32.3476 34.9351C33.0161 34.9055 33.65 34.6296 34.1274 34.1604C34.6048 33.6913 34.8919 33.0622 34.9335 32.3941C34.975 31.726 34.7682 31.0661 34.3526 30.5413C33.9371 30.0166 33.3423 29.6642 32.6826 29.5518C32.023 29.4394 31.3451 29.575 30.7794 29.9326L28.2098 27.3525C29.8943 25.4819 30.882 23.087 31.006 20.5723H34.6452C34.7551 21.0714 35.0039 21.5292 35.3628 21.893C35.7217 22.2567 36.1761 22.5114 36.6736 22.6279C37.171 22.7443 37.6912 22.7177 38.1742 22.5511C38.6571 22.3844 39.0832 22.0846 39.4031 21.6861C39.723 21.2876 39.9238 20.8068 39.9822 20.2991C40.0407 19.7914 39.9544 19.2775 39.7334 18.8167C39.5125 18.3559 39.1657 17.967 38.7333 17.6949C38.3008 17.4228 37.8003 17.2785 37.2894 17.2788H37.2897ZM31.1217 6.66722C31.415 6.37378 31.8128 6.20892 32.2276 6.2089C32.6425 6.20889 33.0403 6.37372 33.3336 6.66714C33.6269 6.96056 33.7917 7.35853 33.7918 7.7735C33.7918 8.18847 33.627 8.58646 33.3337 8.8799C33.1888 9.0266 33.0163 9.14318 32.8262 9.22295C32.636 9.30272 32.432 9.3441 32.2258 9.34471C32.0197 9.34532 31.8154 9.30514 31.6248 9.2265C31.4342 9.14785 31.261 9.03228 31.1152 8.88645C30.9695 8.7406 30.8539 8.56737 30.7753 8.3767C30.6967 8.18604 30.6565 7.9817 30.6571 7.77545C30.6577 7.5692 30.6991 7.3651 30.7788 7.17489C30.8585 6.98469 30.9751 6.81213 31.1217 6.66714V6.66722ZM8.89209 8.8799C8.67335 9.09875 8.39465 9.2478 8.09124 9.30819C7.78783 9.36858 7.47332 9.33761 7.18751 9.21919C6.90169 9.10077 6.65739 8.90021 6.48552 8.64289C6.31364 8.38557 6.2219 8.08304 6.2219 7.77356C6.2219 7.46408 6.31364 7.16155 6.48552 6.90423C6.65739 6.64691 6.90169 6.44635 7.18751 6.32793C7.47332 6.20951 7.78783 6.17854 8.09124 6.23893C8.39465 6.29932 8.67335 6.44837 8.89209 6.66722C9.03736 6.81248 9.15261 6.98495 9.23123 7.17478C9.30986 7.36461 9.35033 7.56808 9.35033 7.77356C9.35033 7.97904 9.30986 8.18251 9.23123 8.37234C9.15261 8.56217 9.03736 8.73464 8.89209 8.8799ZM2.72405 21.5638C2.4147 21.5637 2.11231 21.472 1.8551 21.3C1.59789 21.1281 1.39743 20.8837 1.27906 20.5978C1.16069 20.3119 1.12972 19.9973 1.19008 19.6937C1.25045 19.3902 1.39942 19.1114 1.61817 18.8926C1.83692 18.6738 2.11561 18.5248 2.41902 18.4644C2.72243 18.404 3.03691 18.435 3.32271 18.5535C3.60851 18.6719 3.85279 18.8724 4.02465 19.1298C4.19651 19.3871 4.28825 19.6896 4.28825 19.9991C4.28777 20.4139 4.12281 20.8116 3.82957 21.105C3.53633 21.3983 3.13875 21.5633 2.72405 21.5638ZM8.89209 33.3309C8.74686 33.4762 8.57444 33.5914 8.38468 33.6701C8.19493 33.7487 7.99155 33.7892 7.78615 33.7892C7.58076 33.7892 7.37737 33.7487 7.18761 33.6701C6.99784 33.5915 6.82542 33.4763 6.68018 33.331C6.53494 33.1857 6.41972 33.0132 6.34111 32.8234C6.26251 32.6335 6.22204 32.4301 6.22204 32.2246C6.22203 32.0191 6.26248 31.8157 6.34107 31.6258C6.41966 31.436 6.53486 31.2635 6.6801 31.1182C6.96316 30.8345 7.34444 30.6706 7.74497 30.6604C8.14551 30.6502 8.53463 30.7945 8.83175 31.0634C8.87306 31.1283 8.92726 31.1841 8.99098 31.2272C9.23929 31.5272 9.36677 31.9092 9.34848 32.2982C9.33019 32.6873 9.16744 33.0556 8.89209 33.331V33.3309ZM31.1217 31.1182C31.3404 30.8994 31.6191 30.7503 31.9226 30.6899C32.226 30.6295 32.5405 30.6605 32.8263 30.7789C33.1121 30.8973 33.3564 31.0979 33.5283 31.3552C33.7002 31.6125 33.7919 31.9151 33.7919 32.2245C33.7919 32.534 33.7002 32.8366 33.5283 33.0939C33.3564 33.3512 33.1121 33.5518 32.8263 33.6702C32.5405 33.7886 32.226 33.8196 31.9226 33.7592C31.6191 33.6988 31.3404 33.5497 31.1217 33.3309C30.9764 33.1856 30.8612 33.0132 30.7826 32.8233C30.7039 32.6335 30.6635 32.43 30.6635 32.2245C30.6635 32.0191 30.7039 31.8156 30.7826 31.6258C30.8612 31.4359 30.9764 31.2635 31.1217 31.1182ZM18.4428 2.70966C18.4428 2.40019 18.5345 2.09767 18.7064 1.84035C18.8783 1.58303 19.1225 1.38248 19.4083 1.26405C19.6941 1.14562 20.0086 1.11464 20.312 1.17501C20.6154 1.23539 20.8941 1.38441 21.1129 1.60324C21.3316 1.82207 21.4806 2.10087 21.541 2.4044C21.6013 2.70792 21.5703 3.02253 21.452 3.30845C21.3336 3.59436 21.1331 3.83874 20.8759 4.01067C20.6187 4.1826 20.3163 4.27437 20.0069 4.27437C19.5922 4.27387 19.1947 4.10886 18.9015 3.81553C18.6082 3.52219 18.4433 3.12449 18.4428 2.70966ZM21.571 37.2885C21.5713 37.5931 21.4827 37.8912 21.3161 38.1462C21.1495 38.4011 20.9121 38.6019 20.6331 38.7239C20.354 38.8458 20.0455 38.8836 19.7452 38.8327C19.445 38.7817 19.1662 38.6442 18.943 38.437C18.7198 38.2298 18.5619 37.9619 18.4887 37.6662C18.4155 37.3705 18.4301 37.0599 18.5309 36.7724C18.6316 36.4849 18.814 36.2331 19.0558 36.0479C19.2975 35.8626 19.588 35.752 19.8917 35.7296C19.9677 35.7451 20.0461 35.7451 20.1221 35.7296C20.5155 35.7589 20.8834 35.9357 21.1521 36.2248C21.4208 36.5138 21.5704 36.8937 21.571 37.2885ZM20.0069 29.8887C18.0552 29.8887 16.1474 29.3097 14.5246 28.225C12.9019 27.1403 11.6371 25.5986 10.8902 23.7948C10.1433 21.991 9.94791 20.0061 10.3287 18.0912C10.7094 16.1763 11.6492 14.4173 13.0293 13.0368C14.4093 11.6562 16.1676 10.716 18.0818 10.3351C19.996 9.95423 21.98 10.1497 23.7832 10.8969C25.5863 11.644 27.1274 12.9093 28.2117 14.5327C29.296 16.1561 29.8747 18.0646 29.8747 20.0171C29.8718 22.6343 28.8312 25.1435 26.9813 26.9941C25.1313 28.8448 22.6231 29.8858 20.0069 29.8887ZM37.2897 21.5638C36.9804 21.5638 36.678 21.472 36.4208 21.3001C36.1636 21.1281 35.9631 20.8838 35.8447 20.5978C35.7263 20.3119 35.6953 19.9973 35.7557 19.6938C35.816 19.3903 35.965 19.1115 36.1838 18.8926C36.4025 18.6738 36.6812 18.5248 36.9846 18.4644C37.288 18.404 37.6025 18.435 37.8883 18.5534C38.1741 18.6719 38.4184 18.8724 38.5903 19.1297C38.7621 19.3871 38.8539 19.6896 38.8539 19.9991C38.8534 20.4139 38.6884 20.8116 38.3952 21.1049C38.102 21.3983 37.7044 21.5633 37.2897 21.5638Z" fill="white"/>
<path d="M26.8428 15.7197L20.2935 11.9372C20.2064 11.8868 20.1076 11.8604 20.007 11.8604C19.9064 11.8604 19.8076 11.8868 19.7205 11.9372L13.1713 15.7197C13.0842 15.77 13.0118 15.8424 12.9615 15.9296C12.9112 16.0167 12.8848 16.1156 12.8848 16.2162V23.7815C12.8848 23.8821 12.9112 23.981 12.9615 24.0682C13.0118 24.1553 13.0842 24.2277 13.1713 24.278L19.7205 28.0606C19.8076 28.1109 19.9064 28.1374 20.007 28.1374C20.1076 28.1374 20.2064 28.1109 20.2935 28.0606L26.8428 24.278C26.9299 24.2277 27.0022 24.1553 27.0525 24.0682C27.1028 23.981 27.1293 23.8821 27.1293 23.7815V16.2162C27.1293 16.1156 27.1028 16.0167 27.0525 15.9296C27.0022 15.8424 26.9299 15.77 26.8428 15.7197ZM20.007 13.0956L22.0708 14.2875L16.6682 17.4078L14.6043 16.2158L20.007 13.0956ZM19.434 26.5712L14.0309 23.4506V17.2087L19.434 20.3294V26.5712ZM20.007 19.3364L17.8143 18.07L23.2169 14.9497L25.4101 16.2159L20.007 19.3364ZM25.9832 23.4506L20.5801 26.5712V20.3294L25.9832 17.2087V23.4506Z" fill="#F8C80F"/>
</svg>
