<svg width="43" height="40" viewBox="0 0 43 40" fill="none" xmlns="http://www.w3.org/2000/svg">
<path d="M36.8137 15.0911C36.8137 10.19 32.7857 6.20776 27.8597 6.20776C24.6392 6.21677 21.6727 7.92858 20.076 10.7035L21.1828 11.3342C22.5527 8.95566 25.0928 7.4781 27.8597 7.46909C32.0963 7.46909 35.5527 10.8927 35.5527 15.0911C35.5527 19.0283 32.5317 22.3168 28.5855 22.6862V23.9565C33.1123 23.5961 36.8137 19.7581 36.8137 15.0911Z" fill="#F8C80F"/>
<path d="M42.4284 12.343L39.7159 12.0818C39.4165 10.9466 38.9629 9.8564 38.346 8.85635L40.0697 6.78416C40.2783 6.53189 40.2602 6.17151 40.0334 5.93727L37.0578 2.94611C36.831 2.71186 36.45 2.69384 36.2051 2.90106L34.1185 4.62188C33.1115 4.01824 32.0138 3.55876 30.8708 3.26144L30.6077 0.567599C30.5805 0.243257 30.2993 0 29.9727 0H25.6998C25.3732 0 25.1011 0.243257 25.0648 0.567599L24.8017 3.26144C23.6586 3.55876 22.5609 4.00923 21.554 4.62188L19.4674 2.91007C19.2134 2.70285 18.8415 2.72087 18.6147 2.94611L15.6028 5.93727C15.3669 6.17151 15.3579 6.53189 15.5665 6.78416L17.2993 8.85635C17.263 8.91941 17.2267 8.98248 17.1813 9.05456L18.2881 9.68522C18.397 9.50503 18.4967 9.32484 18.6147 9.14465C18.7689 8.9104 18.7508 8.61309 18.5693 8.39686L16.9182 6.41477L19.1136 4.23447L21.1094 5.8742C21.3272 6.05439 21.6356 6.0634 21.8624 5.91024C22.9783 5.18047 24.2211 4.65792 25.5275 4.37862C25.7996 4.32456 25.9992 4.09933 26.0264 3.82003L26.2804 1.25232H29.3921L29.6461 3.82003C29.6733 4.09032 29.8729 4.31555 30.145 4.37862C31.4514 4.66693 32.7033 5.18948 33.8192 5.91925C34.055 6.07241 34.3544 6.05439 34.5721 5.8742L36.5589 4.23447L38.718 6.40576L37.0669 8.38785C36.8854 8.60408 36.8764 8.9104 37.0306 9.13564C37.7654 10.2438 38.2916 11.4781 38.5728 12.7755C38.6273 13.0458 38.854 13.244 39.1353 13.271L41.7208 13.5233V16.6135L39.1716 16.8568C38.8994 16.8838 38.6726 17.082 38.6091 17.3523C38.3188 18.6497 37.7926 19.893 37.0578 21.0012C36.9036 21.2354 36.9217 21.5327 37.1032 21.749L38.7543 23.731L36.5589 25.9113L34.563 24.2716C34.3453 24.0914 34.0369 24.0824 33.8101 24.2356C32.6942 24.9653 31.4514 25.4879 30.145 25.7672C29.8729 25.8213 29.6733 26.0465 29.6461 26.3258L29.3921 28.9025H28.5756V30.1638H29.9817C30.3083 30.1638 30.5805 29.9206 30.6168 29.5962L30.8799 26.9024C32.0229 26.6051 33.1206 26.1546 34.1276 25.542L36.2141 27.2538C36.4681 27.461 36.8401 27.443 37.0669 27.2177L40.0787 24.2266C40.3146 23.9923 40.3237 23.6319 40.115 23.3797L38.3823 21.3075C38.9901 20.3074 39.4528 19.2173 39.7522 18.0821L42.4284 17.8208C42.755 17.7938 42.9999 17.5145 42.9999 17.1901V12.9737C42.9999 12.6494 42.755 12.3701 42.4284 12.343Z" fill="#F8C80F"/>
<path d="M28.5764 15.9199C28.5674 15.6946 28.4403 15.4874 28.2408 15.3703L21.1828 11.325L20.0761 10.6944L18.298 9.67629L17.1912 9.04562L15.522 8.09062L14.5694 7.55005C14.3789 7.45094 14.1431 7.45094 13.9526 7.55906L0.317516 15.3793C0.117934 15.4964 0 15.7037 0 15.9289V31.5604C0 31.7856 0.117934 31.9928 0.317516 32.11L13.9526 39.9122C14.1521 40.0293 14.388 40.0293 14.5876 39.9122L28.2408 32.0919C28.4313 31.9928 28.5492 31.8036 28.5764 31.5964L28.5855 20.4246V15.9199H28.5764ZM14.2701 8.83841L19.6769 11.9377L7.32101 19.0282L1.90509 15.9199L14.2701 8.83841ZM13.6078 38.2815L1.27006 31.191V17.01L13.6078 24.1005V38.2815ZM14.2701 23.0104L8.59107 19.7579L20.947 12.6674L26.626 15.9199L14.2701 23.0104ZM27.3064 31.191L14.8779 38.2815V24.1005L27.3064 17.01V31.191Z" fill="white"/>
</svg>
