<svg width="43" height="40" viewBox="0 0 43 40" fill="none" xmlns="http://www.w3.org/2000/svg">
<path d="M39.9578 17.2355H37.8124C37.6902 16.7892 37.4272 16.3952 37.0633 16.113C36.6994 15.8308 36.2544 15.6759 35.7954 15.6715H33.5052V10.0217C33.5078 9.91606 33.4824 9.81158 33.4318 9.71902C33.3812 9.62647 33.307 9.54916 33.217 9.49504L17.0607 0.0815158C16.9696 0.0281246 16.8662 0 16.7609 0C16.6555 0 16.5521 0.0281246 16.461 0.0815158L0.299741 9.49504C0.208296 9.54851 0.13244 9.62536 0.0798173 9.71783C0.0271946 9.8103 -0.000335019 9.91512 3.077e-06 10.0217V28.8489C5.76555e-06 28.9556 0.0278657 29.0605 0.080783 29.153C0.1337 29.2454 0.20981 29.3222 0.301464 29.3756L16.4644 38.7891C16.5561 38.8425 16.66 38.8706 16.7659 38.8706C16.8744 38.8707 16.9812 38.8426 17.0759 38.7891L25.5811 33.8403V37.4178C25.5802 37.7584 25.6463 38.0958 25.7756 38.4104C25.9048 38.7251 26.0947 39.0108 26.3341 39.2509C26.5735 39.4911 26.8578 39.6809 27.1705 39.8095C27.4832 39.938 27.818 40.0028 28.1556 39.9999H39.9578C40.2963 40.0031 40.6321 39.9387 40.9458 39.8104C41.2596 39.6822 41.5451 39.4926 41.7859 39.2526C42.0267 39.0126 42.2181 38.727 42.3491 38.4121C42.4801 38.0972 42.548 37.7593 42.549 37.4178V19.8579C42.5486 19.164 42.2757 18.4985 41.7901 18.007C41.3045 17.5155 40.6457 17.2381 39.9578 17.2355ZM35.8169 16.8879C36.049 16.8879 36.2716 16.9809 36.4357 17.1465C36.5998 17.3121 36.6921 17.5366 36.6921 17.7708V17.8297C36.6921 18.0638 36.5998 18.2884 36.4357 18.454C36.2716 18.6195 36.049 18.7125 35.8169 18.7125H32.3132C32.0811 18.7125 31.8585 18.6195 31.6944 18.454C31.5302 18.2884 31.438 18.0638 31.438 17.8297V17.7708C31.438 17.5366 31.5302 17.3121 31.6944 17.1465C31.8585 16.9809 32.0811 16.8879 32.3132 16.8879H35.8169ZM16.7659 1.31053L23.4819 5.22202L8.52582 13.9326L1.80989 10.0211L16.7659 1.31053ZM16.1927 37.2089L1.20584 28.4977V11.0739L16.1927 19.7851V37.2089ZM16.7659 18.7317L9.73167 14.6348L24.6877 5.92433L31.7223 10.0211L16.7659 18.7317ZM25.5811 19.8579V32.4358L17.3986 37.2089V19.7851L32.2993 11.0739V15.6715H32.318C31.8591 15.6758 31.414 15.8308 31.0501 16.113C30.6862 16.3952 30.4233 16.7892 30.3011 17.2355H28.1556C27.4695 17.2388 26.8128 17.517 26.33 18.0088C25.8471 18.5006 25.5778 19.1657 25.5811 19.8579ZM41.3432 37.4178C41.3423 37.5996 41.3057 37.7794 41.2354 37.9468C41.1651 38.1142 41.0625 38.2658 40.9336 38.3929C40.8047 38.52 40.6521 38.6199 40.4846 38.687C40.3171 38.754 40.138 38.7868 39.9578 38.7835H28.1556C27.9763 38.7865 27.7982 38.7534 27.6318 38.686C27.4653 38.6187 27.3139 38.5184 27.1864 38.3912C27.0589 38.264 26.9578 38.1123 26.8892 37.9452C26.8207 37.778 26.7859 37.5987 26.7869 37.4178V19.8579C26.7851 19.6749 26.8191 19.4933 26.8869 19.3235C26.9547 19.1537 27.0551 18.9991 27.1822 18.8685C27.3094 18.738 27.4608 18.6339 27.6278 18.5624C27.7948 18.4909 27.9742 18.4534 28.1556 18.4519H30.3246C30.4539 18.8824 30.7181 19.259 31.0774 19.5253C31.4368 19.7916 31.8721 19.9333 32.318 19.929H35.7954C36.2413 19.9333 36.6766 19.7917 37.036 19.5254C37.3954 19.259 37.6595 18.8824 37.7888 18.4519H39.9578C40.326 18.4542 40.6783 18.6034 40.9378 18.8668C41.1974 19.1302 41.3431 19.4865 41.3432 19.8579V37.4178Z" fill="white"/>
<path d="M28.8494 26.0109H29.4805C29.6404 26.0109 29.7937 25.9469 29.9068 25.8328C30.0199 25.7187 30.0834 25.564 30.0834 25.4027C30.0834 25.2414 30.0199 25.0867 29.9068 24.9727C29.7937 24.8586 29.6404 24.7945 29.4805 24.7945H29.4567V23.1437H31.1197C31.1575 23.266 31.2341 23.3723 31.3376 23.4465C31.4411 23.5207 31.5659 23.5586 31.6929 23.5544C31.853 23.5548 32.0067 23.4912 32.1203 23.3774C32.234 23.2637 32.2983 23.1091 32.2991 22.9476V22.5383C32.2977 22.376 32.2329 22.2208 32.1188 22.1064C32.0047 21.992 31.8505 21.9276 31.6896 21.9272H28.8494C28.7703 21.9277 28.6921 21.9438 28.6192 21.9747C28.5463 22.0057 28.4801 22.0508 28.4245 22.1076C28.3689 22.1643 28.325 22.2316 28.2952 22.3055C28.2654 22.3794 28.2503 22.4585 28.2509 22.5383V25.4034C28.2504 25.483 28.2655 25.5619 28.2954 25.6356C28.3252 25.7093 28.3693 25.7763 28.4249 25.8328C28.4805 25.8892 28.5467 25.934 28.6195 25.9646C28.6924 25.9952 28.7705 26.0109 28.8494 26.0109Z" fill="#F8C80F"/>
<path d="M28.8538 31.5717H31.6961C31.856 31.5717 32.0094 31.5077 32.1224 31.3936C32.2355 31.2795 32.299 31.1248 32.299 30.9635V28.0962C32.299 27.9349 32.2355 27.7802 32.1224 27.6662C32.0094 27.5521 31.856 27.488 31.6961 27.488H28.8538C28.6939 27.488 28.5405 27.5521 28.4274 27.6662C28.3144 27.7802 28.2509 27.9349 28.2509 28.0962V30.9635C28.2509 31.1248 28.3144 31.2795 28.4274 31.3936C28.5405 31.5077 28.6939 31.5717 28.8538 31.5717ZM29.4567 28.7045H31.0932V30.3553H29.4567V28.7045Z" fill="#F8C80F"/>
<path d="M29.4806 35.9161H29.4567V34.2652H31.0871C31.0902 34.4252 31.1554 34.5775 31.2685 34.6896C31.3817 34.8017 31.5339 34.8645 31.6925 34.8647C31.8511 34.8648 32.0034 34.8023 32.1168 34.6905C32.2302 34.5786 32.2957 34.4264 32.2991 34.2665V33.6804C32.2985 33.516 32.2346 33.3582 32.1209 33.2404C32.0072 33.1226 31.8525 33.0539 31.6896 33.0488H28.8494C28.6876 33.0543 28.5344 33.1235 28.4225 33.2415C28.3107 33.3596 28.249 33.5171 28.2509 33.6804V36.5455C28.2508 36.624 28.2664 36.7018 28.2966 36.7742C28.3269 36.8465 28.3712 36.912 28.4271 36.9667C28.4829 37.0215 28.549 37.0644 28.6216 37.0928C28.6941 37.1213 28.7716 37.1348 28.8494 37.1325H29.4806C29.6405 37.1325 29.7939 37.0684 29.9069 36.9544C30.02 36.8403 30.0835 36.6856 30.0835 36.5243C30.0835 36.363 30.02 36.2083 29.9069 36.0942C29.7939 35.9802 29.6405 35.9161 29.4806 35.9161Z" fill="#F8C80F"/>
<path d="M33.0783 22.674L31.3126 24.4552L30.7755 23.9133C30.7195 23.8568 30.6531 23.812 30.5799 23.7814C30.5068 23.7509 30.4283 23.7351 30.3492 23.7351C30.27 23.7351 30.1916 23.7509 30.1184 23.7814C30.0453 23.812 29.9788 23.8568 29.9228 23.9133C29.8668 23.9698 29.8224 24.0368 29.7921 24.1106C29.7618 24.1844 29.7462 24.2635 29.7462 24.3434C29.7462 24.4233 29.7618 24.5023 29.7921 24.5761C29.8224 24.6499 29.8668 24.717 29.9228 24.7735L30.8864 25.7454C30.9424 25.8019 31.0088 25.8467 31.082 25.8772C31.1551 25.9078 31.2335 25.9236 31.3127 25.9236C31.3919 25.9236 31.4703 25.9078 31.5435 25.8772C31.6166 25.8467 31.6831 25.8019 31.7391 25.7454L33.9313 23.5339C34.0444 23.4199 34.1079 23.2652 34.1079 23.1038C34.1079 22.9425 34.0444 22.7878 33.9313 22.6738C33.8182 22.5597 33.6649 22.4956 33.5049 22.4956C33.345 22.4956 33.1917 22.5597 33.0786 22.6738L33.0783 22.674Z" fill="#F8C80F"/>
<path d="M33.0783 33.904L31.3126 35.6852L30.7755 35.1433C30.7195 35.0868 30.6531 35.042 30.5799 35.0114C30.5068 34.9809 30.4283 34.9651 30.3492 34.9651C30.27 34.9651 30.1916 34.9809 30.1184 35.0114C30.0453 35.042 29.9788 35.0868 29.9228 35.1433C29.8668 35.1997 29.8224 35.2668 29.7921 35.3406C29.7618 35.4144 29.7462 35.4935 29.7462 35.5734C29.7462 35.6532 29.7618 35.7323 29.7921 35.8061C29.8224 35.8799 29.8668 35.947 29.9228 36.0035L30.8864 36.9754C30.9424 37.0319 31.0088 37.0767 31.082 37.1072C31.1551 37.1378 31.2335 37.1535 31.3127 37.1535C31.3919 37.1535 31.4703 37.1378 31.5435 37.1072C31.6166 37.0767 31.6831 37.0319 31.7391 36.9754L33.9313 34.7639C34.0444 34.6499 34.1079 34.4951 34.1079 34.3338C34.1079 34.1725 34.0444 34.0178 33.9313 33.9037C33.8182 33.7897 33.6649 33.7256 33.5049 33.7256C33.345 33.7256 33.1917 33.7897 33.0786 33.9037L33.0783 33.904Z" fill="#F8C80F"/>
<path d="M39.2634 23.4045H35.4766C35.3167 23.4045 35.1633 23.4686 35.0502 23.5827C34.9372 23.6967 34.8737 23.8514 34.8737 24.0128C34.8737 24.1741 34.9372 24.3288 35.0502 24.4428C35.1633 24.5569 35.3167 24.621 35.4766 24.621H39.2634C39.4233 24.621 39.5767 24.5569 39.6898 24.4428C39.8028 24.3288 39.8664 24.1741 39.8664 24.0128C39.8664 23.8514 39.8028 23.6967 39.6898 23.5827C39.5767 23.4686 39.4233 23.4045 39.2634 23.4045Z" fill="#F8C80F"/>
<path d="M39.2634 28.9653H35.4766C35.3167 28.9653 35.1633 29.0294 35.0502 29.1435C34.9372 29.2575 34.8737 29.4122 34.8737 29.5735C34.8737 29.7348 34.9372 29.8895 35.0502 30.0036C35.1633 30.1177 35.3167 30.1818 35.4766 30.1818H39.2634C39.4233 30.1818 39.5767 30.1177 39.6898 30.0036C39.8028 29.8895 39.8664 29.7348 39.8664 29.5735C39.8664 29.4122 39.8028 29.2575 39.6898 29.1435C39.5767 29.0294 39.4233 28.9653 39.2634 28.9653Z" fill="#F8C80F"/>
<path d="M39.2634 34.5259H35.4766C35.3167 34.5259 35.1633 34.59 35.0502 34.704C34.9372 34.8181 34.8737 34.9728 34.8737 35.1341C34.8737 35.2954 34.9372 35.4501 35.0502 35.5642C35.1633 35.6782 35.3167 35.7423 35.4766 35.7423H39.2634C39.4233 35.7423 39.5767 35.6782 39.6898 35.5642C39.8028 35.4501 39.8664 35.2954 39.8664 35.1341C39.8664 34.9728 39.8028 34.8181 39.6898 34.704C39.5767 34.59 39.4233 34.5259 39.2634 34.5259Z" fill="#F8C80F"/>
</svg>
