<svg width="40" height="40" viewBox="0 0 40 40" fill="none" xmlns="http://www.w3.org/2000/svg">
<path d="M33.2904 5.71176C29.6333 2.05459 24.6731 9.47155e-06 19.5011 0C14.3291 -9.47148e-06 9.36893 2.05455 5.71176 5.71171C2.05459 9.36886 9.47155e-06 14.329 0 19.501C-9.47148e-06 24.673 2.05455 29.6332 5.71171 33.2904C9.2698 36.8489 14.0658 38.8941 19.097 38.9982C24.1281 39.1024 29.0047 37.2575 32.707 33.8494L38.6209 39.7633C38.7725 39.9149 38.978 40 39.1924 40C39.4067 40 39.6122 39.9149 39.7638 39.7633C39.9153 39.6118 40.0005 39.4062 40.0005 39.1919C40.0005 38.9776 39.9153 38.772 39.7638 38.6205L33.8493 32.7071C37.2573 29.0047 39.1021 24.1283 38.998 19.0973C38.8938 14.0663 36.8488 9.26985 33.2904 5.71176ZM1.61616 19.5011C1.61585 16.567 2.33741 13.6779 3.71724 11.0885C5.09706 8.49906 7.09276 6.28889 9.52839 4.65282C11.964 3.01675 14.7647 2.00504 17.6837 1.70689C20.6026 1.40873 23.55 1.83329 26.2661 2.94313C28.9823 4.05298 31.3836 5.81401 33.2585 8.07098C35.1333 10.3279 36.4241 13.0115 37.017 15.8851C37.6099 18.7587 37.4868 21.734 36.6584 24.5487C35.83 27.3635 34.3218 29.9312 32.2668 32.0254C32.1699 32.0876 32.0876 32.17 32.0254 32.2669C31.8152 32.4733 31.6008 32.6739 31.3823 32.8686V32.4126C31.3849 32.0853 31.3496 31.7587 31.277 31.4395C31.2635 31.3829 31.2492 31.3265 31.2341 31.2704C31.0326 30.5544 30.6559 29.8999 30.1379 29.3662C29.62 28.8324 28.9771 28.4361 28.2675 28.2132L23.4272 26.6438V24.6438C24.3013 24.1024 25.0538 23.3858 25.6373 22.5391C26.2208 21.6925 26.6227 20.7342 26.8176 19.7247L27.0767 18.8337C27.6554 18.6158 28.1342 18.1935 28.4226 17.6467C28.7111 17.0998 28.7893 16.4662 28.6424 15.8656C28.5678 15.5526 28.4208 15.2615 28.2132 15.0157C28.0056 14.7699 27.7432 14.5763 27.447 14.4504V11.3107C27.4545 10.2627 27.2545 9.22353 26.8586 8.2531C26.4627 7.28268 25.8787 6.40018 25.1403 5.65645C24.4018 4.91271 23.5235 4.32244 22.556 3.91963C21.5884 3.51683 20.5507 3.30945 19.5026 3.30945C18.4545 3.30945 17.4168 3.51683 16.4492 3.91963C15.4817 4.32244 14.6033 4.91271 13.8649 5.65645C13.1264 6.40018 12.5424 7.28268 12.1466 8.2531C11.7507 9.22353 11.5507 10.2627 11.5582 11.3107V14.4491C11.2613 14.5747 10.9982 14.7684 10.79 15.0145C10.5818 15.2606 10.4345 15.5522 10.3599 15.8658C10.213 16.4664 10.2911 17.0999 10.5796 17.6468C10.8681 18.1937 11.3469 18.6159 11.9255 18.8338L12.1845 19.7248C12.3795 20.7343 12.7814 21.6926 13.3649 22.5392C13.9484 23.3858 14.7009 24.1025 15.575 24.6439V26.6439L10.7346 28.2133C10.0251 28.4362 9.38232 28.8324 8.86439 29.3662C8.34647 29.8999 7.96974 30.5543 7.76827 31.2702C7.75278 31.3264 7.73841 31.3829 7.72514 31.4397C7.65264 31.7589 7.61735 32.0854 7.61999 32.4127V32.8687C7.35925 32.6364 7.10413 32.3961 6.85464 32.1478C5.18865 30.4909 3.86784 28.52 2.96865 26.3492C2.06947 24.1784 1.60977 21.8508 1.61616 19.5011ZM22.0131 26.7253C21.2232 27.0802 20.3671 27.2638 19.5011 27.2638C18.6351 27.2638 17.7789 27.0802 16.9891 26.7253V25.3279C18.6131 25.9104 20.3891 25.9104 22.0131 25.3279V26.7253ZM11.7332 16.202C11.7564 16.1009 11.8038 16.0069 11.8714 15.9282C11.939 15.8494 12.0247 15.7883 12.1212 15.75C12.3699 15.8522 12.6395 15.893 12.9073 15.8691C13.1751 15.8452 13.4333 15.7573 13.66 15.6127C13.8867 15.4681 14.0753 15.2711 14.2098 15.0384C14.3444 14.8056 14.4211 14.5439 14.4333 14.2753L14.5217 12.3349C14.9315 12.3349 15.4976 12.3223 16.1667 12.277C20.4668 15.9134 26.5078 15.7252 26.7674 15.7151C26.7696 15.7151 26.7718 15.7151 26.774 15.7145C26.8941 15.7407 27.0044 15.8005 27.092 15.8868C27.1796 15.9731 27.2409 16.0825 27.2689 16.2022C27.3051 16.3501 27.3106 16.5039 27.285 16.6539C27.2595 16.804 27.2034 16.9473 27.1203 17.0748C27.0372 17.2024 26.9289 17.3116 26.8019 17.3956C26.675 17.4797 26.5322 17.5368 26.3823 17.5635C26.241 17.5882 26.1105 17.6553 26.0083 17.7559C25.906 17.8565 25.8368 17.9858 25.8098 18.1267L25.4505 19.3624C25.4441 19.3844 25.4388 19.4067 25.4346 19.4292C25.1745 20.8127 24.4392 22.0617 23.3557 22.9605C22.2723 23.8592 20.9089 24.3511 19.5012 24.3511C18.0935 24.3511 16.7301 23.8592 15.6466 22.9605C14.5632 22.0617 13.8278 20.8127 13.5678 19.4292C13.5636 19.4067 13.5582 19.3844 13.5518 19.3624L13.1926 18.1267C13.1656 17.9858 13.0963 17.8565 12.9941 17.7559C12.8918 17.6553 12.7614 17.5882 12.6201 17.5635C12.3624 17.5185 12.129 17.3839 11.9609 17.1836C11.7928 16.9832 11.7009 16.7298 11.7015 16.4683C11.7014 16.3786 11.712 16.2892 11.7332 16.202ZM20.0592 11.6911C20.663 12.3066 22.1213 13.5484 24.5227 14.169C22.8162 13.9569 20.3856 13.416 18.2418 12.0498C18.8781 11.9529 19.4839 11.8333 20.0592 11.6911ZM26.033 13.0269C23.8883 12.7372 22.4491 11.8675 21.6418 11.2196C22.7431 10.8442 23.7789 10.2989 24.7118 9.60347C24.8606 9.48935 24.958 9.32078 24.9825 9.13485C25.007 8.94893 24.9567 8.76087 24.8426 8.61206C24.7285 8.46324 24.5599 8.36586 24.374 8.34132C24.188 8.31679 24 8.36713 23.8512 8.48125C20.3081 11.1984 13.9461 10.9117 13.8827 10.9088C13.7896 10.904 13.6965 10.9177 13.6088 10.9491C13.521 10.9804 13.4403 11.0288 13.3713 11.0914C13.3023 11.154 13.2464 11.2297 13.2067 11.314C13.167 11.3983 13.1444 11.4897 13.1402 11.5828L13.0202 14.2107C13.0187 14.262 13.0019 14.3116 12.9718 14.3532V11.3107C12.965 10.4488 13.1289 9.59414 13.4541 8.7959C13.7792 7.99766 14.2591 7.27167 14.8662 6.65981C15.4733 6.04795 16.1955 5.56232 16.9911 5.23091C17.7868 4.8995 18.6402 4.72888 19.5021 4.72888C20.364 4.72888 21.2174 4.8995 22.0131 5.23091C22.8087 5.56232 23.5309 6.04795 24.138 6.65981C24.745 7.27167 25.225 7.99766 25.5501 8.7959C25.8752 9.59414 26.0392 10.4488 26.0324 11.3107L26.033 13.0269ZM9.03403 34.0067V32.4126C9.03158 32.1935 9.05446 31.9749 9.10221 31.7611C9.11116 31.7222 9.121 31.6835 9.1317 31.6448C9.27148 31.155 9.5311 30.7078 9.88709 30.3435C10.2431 29.9792 10.6842 29.7094 11.1707 29.5584L16.2139 27.9233C17.2387 28.4195 18.3625 28.6773 19.5011 28.6773C20.6397 28.6773 21.7635 28.4195 22.7882 27.9233L27.8314 29.5584C28.3178 29.7094 28.759 29.9792 29.115 30.3435C29.471 30.7078 29.7307 31.155 29.8704 31.6448C29.881 31.6834 29.8909 31.7221 29.8999 31.761C29.9477 31.9749 29.9706 32.1935 29.9681 32.4126V34.0067C26.9203 36.2037 23.2583 37.3861 19.5011 37.3861C15.7439 37.3861 12.0819 36.2037 9.03403 34.0067Z" fill="white"/>
<mask id="mask0" mask-type="alpha" maskUnits="userSpaceOnUse" x="0" y="0" width="41" height="40">
<path d="M33.2904 5.71176C29.6333 2.05459 24.6731 9.47155e-06 19.5011 0C14.3291 -9.47148e-06 9.36893 2.05455 5.71176 5.71171C2.05459 9.36886 9.47155e-06 14.329 0 19.501C-9.47148e-06 24.673 2.05455 29.6332 5.71171 33.2904C9.2698 36.8489 14.0658 38.8941 19.097 38.9982C24.1281 39.1024 29.0047 37.2575 32.707 33.8494L38.6209 39.7633C38.7725 39.9149 38.978 40 39.1924 40C39.4067 40 39.6122 39.9149 39.7638 39.7633C39.9153 39.6118 40.0005 39.4062 40.0005 39.1919C40.0005 38.9776 39.9153 38.772 39.7638 38.6205L33.8493 32.7071C37.2573 29.0047 39.1021 24.1283 38.998 19.0973C38.8938 14.0663 36.8488 9.26985 33.2904 5.71176ZM1.61616 19.5011C1.61585 16.567 2.33741 13.6779 3.71724 11.0885C5.09706 8.49906 7.09276 6.28889 9.52839 4.65282C11.964 3.01675 14.7647 2.00504 17.6837 1.70689C20.6026 1.40873 23.55 1.83329 26.2661 2.94313C28.9823 4.05298 31.3836 5.81401 33.2585 8.07098C35.1333 10.3279 36.4241 13.0115 37.017 15.8851C37.6099 18.7587 37.4868 21.734 36.6584 24.5487C35.83 27.3635 34.3218 29.9312 32.2668 32.0254C32.1699 32.0876 32.0876 32.17 32.0254 32.2669C31.8152 32.4733 31.6008 32.6739 31.3823 32.8686V32.4126C31.3849 32.0853 31.3496 31.7587 31.277 31.4395C31.2635 31.3829 31.2492 31.3265 31.2341 31.2704C31.0326 30.5544 30.6559 29.8999 30.1379 29.3662C29.62 28.8324 28.9771 28.4361 28.2675 28.2132L23.4272 26.6438V24.6438C24.3013 24.1024 25.0538 23.3858 25.6373 22.5391C26.2208 21.6925 26.6227 20.7342 26.8176 19.7247L27.0767 18.8337C27.6554 18.6158 28.1342 18.1935 28.4226 17.6467C28.7111 17.0998 28.7893 16.4662 28.6424 15.8656C28.5678 15.5526 28.4208 15.2615 28.2132 15.0157C28.0056 14.7699 27.7432 14.5763 27.447 14.4504V11.3107C27.4545 10.2627 27.2545 9.22353 26.8586 8.2531C26.4627 7.28268 25.8787 6.40018 25.1403 5.65645C24.4018 4.91271 23.5235 4.32244 22.556 3.91963C21.5884 3.51683 20.5507 3.30945 19.5026 3.30945C18.4545 3.30945 17.4168 3.51683 16.4492 3.91963C15.4817 4.32244 14.6033 4.91271 13.8649 5.65645C13.1264 6.40018 12.5424 7.28268 12.1466 8.2531C11.7507 9.22353 11.5507 10.2627 11.5582 11.3107V14.4491C11.2613 14.5747 10.9982 14.7684 10.79 15.0145C10.5818 15.2606 10.4345 15.5522 10.3599 15.8658C10.213 16.4664 10.2911 17.0999 10.5796 17.6468C10.8681 18.1937 11.3469 18.6159 11.9255 18.8338L12.1845 19.7248C12.3795 20.7343 12.7814 21.6926 13.3649 22.5392C13.9484 23.3858 14.7009 24.1025 15.575 24.6439V26.6439L10.7346 28.2133C10.0251 28.4362 9.38232 28.8324 8.86439 29.3662C8.34647 29.8999 7.96974 30.5543 7.76827 31.2702C7.75278 31.3264 7.73841 31.3829 7.72514 31.4397C7.65264 31.7589 7.61735 32.0854 7.61999 32.4127V32.8687C7.35925 32.6364 7.10413 32.3961 6.85464 32.1478C5.18865 30.4909 3.86784 28.52 2.96865 26.3492C2.06947 24.1784 1.60977 21.8508 1.61616 19.5011ZM22.0131 26.7253C21.2232 27.0802 20.3671 27.2638 19.5011 27.2638C18.6351 27.2638 17.7789 27.0802 16.9891 26.7253V25.3279C18.6131 25.9104 20.3891 25.9104 22.0131 25.3279V26.7253ZM11.7332 16.202C11.7564 16.1009 11.8038 16.0069 11.8714 15.9282C11.939 15.8494 12.0247 15.7883 12.1212 15.75C12.3699 15.8522 12.6395 15.893 12.9073 15.8691C13.1751 15.8452 13.4333 15.7573 13.66 15.6127C13.8867 15.4681 14.0753 15.2711 14.2098 15.0384C14.3444 14.8056 14.4211 14.5439 14.4333 14.2753L14.5217 12.3349C14.9315 12.3349 15.4976 12.3223 16.1667 12.277C20.4668 15.9134 26.5078 15.7252 26.7674 15.7151C26.7696 15.7151 26.7718 15.7151 26.774 15.7145C26.8941 15.7407 27.0044 15.8005 27.092 15.8868C27.1796 15.9731 27.2409 16.0825 27.2689 16.2022C27.3051 16.3501 27.3106 16.5039 27.285 16.6539C27.2595 16.804 27.2034 16.9473 27.1203 17.0748C27.0372 17.2024 26.9289 17.3116 26.8019 17.3956C26.675 17.4797 26.5322 17.5368 26.3823 17.5635C26.241 17.5882 26.1105 17.6553 26.0083 17.7559C25.906 17.8565 25.8368 17.9858 25.8098 18.1267L25.4505 19.3624C25.4441 19.3844 25.4388 19.4067 25.4346 19.4292C25.1745 20.8127 24.4392 22.0617 23.3557 22.9605C22.2723 23.8592 20.9089 24.3511 19.5012 24.3511C18.0935 24.3511 16.7301 23.8592 15.6466 22.9605C14.5632 22.0617 13.8278 20.8127 13.5678 19.4292C13.5636 19.4067 13.5582 19.3844 13.5518 19.3624L13.1926 18.1267C13.1656 17.9858 13.0963 17.8565 12.9941 17.7559C12.8918 17.6553 12.7614 17.5882 12.6201 17.5635C12.3624 17.5185 12.129 17.3839 11.9609 17.1836C11.7928 16.9832 11.7009 16.7298 11.7015 16.4683C11.7014 16.3786 11.712 16.2892 11.7332 16.202ZM20.0592 11.6911C20.663 12.3066 22.1213 13.5484 24.5227 14.169C22.8162 13.9569 20.3856 13.416 18.2418 12.0498C18.8781 11.9529 19.4839 11.8333 20.0592 11.6911ZM26.033 13.0269C23.8883 12.7372 22.4491 11.8675 21.6418 11.2196C22.7431 10.8442 23.7789 10.2989 24.7118 9.60347C24.8606 9.48935 24.958 9.32078 24.9825 9.13485C25.007 8.94893 24.9567 8.76087 24.8426 8.61206C24.7285 8.46324 24.5599 8.36586 24.374 8.34132C24.188 8.31679 24 8.36713 23.8512 8.48125C20.3081 11.1984 13.9461 10.9117 13.8827 10.9088C13.7896 10.904 13.6965 10.9177 13.6088 10.9491C13.521 10.9804 13.4403 11.0288 13.3713 11.0914C13.3023 11.154 13.2464 11.2297 13.2067 11.314C13.167 11.3983 13.1444 11.4897 13.1402 11.5828L13.0202 14.2107C13.0187 14.262 13.0019 14.3116 12.9718 14.3532V11.3107C12.965 10.4488 13.1289 9.59414 13.4541 8.7959C13.7792 7.99766 14.2591 7.27167 14.8662 6.65981C15.4733 6.04795 16.1955 5.56232 16.9911 5.23091C17.7868 4.8995 18.6402 4.72888 19.5021 4.72888C20.364 4.72888 21.2174 4.8995 22.0131 5.23091C22.8087 5.56232 23.5309 6.04795 24.138 6.65981C24.745 7.27167 25.225 7.99766 25.5501 8.7959C25.8752 9.59414 26.0392 10.4488 26.0324 11.3107L26.033 13.0269ZM9.03403 34.0067V32.4126C9.03158 32.1935 9.05446 31.9749 9.10221 31.7611C9.11116 31.7222 9.121 31.6835 9.1317 31.6448C9.27148 31.155 9.5311 30.7078 9.88709 30.3435C10.2431 29.9792 10.6842 29.7094 11.1707 29.5584L16.2139 27.9233C17.2387 28.4195 18.3625 28.6773 19.5011 28.6773C20.6397 28.6773 21.7635 28.4195 22.7882 27.9233L27.8314 29.5584C28.3178 29.7094 28.759 29.9792 29.115 30.3435C29.471 30.7078 29.7307 31.155 29.8704 31.6448C29.881 31.6834 29.8909 31.7221 29.8999 31.761C29.9477 31.9749 29.9706 32.1935 29.9681 32.4126V34.0067C26.9203 36.2037 23.2583 37.3861 19.5011 37.3861C15.7439 37.3861 12.0819 36.2037 9.03403 34.0067Z" fill="white"/>
</mask>
<g mask="url(#mask0)">
<path d="M37.3996 19.4999C37.3996 29.3858 29.3855 37.3999 19.4996 37.3999C9.61371 37.3999 1.59961 29.3858 1.59961 19.4999C1.59961 9.61402 9.61374 26.9998 19.4996 26.9998C29.3855 26.9998 37.3996 9.61402 37.3996 19.4999Z" fill="#F8C80F"/>
</g>
</svg>
